# Blender v3.4.1 OBJ File: 'rifle.blend'
# www.blender.org
mtllib rifle.mtl
o Cube_Cube.001
v 0.662823 1.000000 0.662823
v -0.662823 1.000000 0.662823
v 0.662823 1.000000 -0.662823
v -0.662823 1.000000 -0.662823
v -5.172253 0.764995 0.893277
v -5.172253 -2.789691 0.893277
v -5.172253 -2.789691 -0.893277
v -5.172253 0.764995 -0.893277
v 8.411348 -1.000000 1.000000
v 8.411348 1.000000 1.000000
v 8.411348 1.000000 -1.000000
v 8.411348 -1.000000 -1.000000
v 6.454862 1.000000 -0.148315
v 6.454862 1.000000 0.148315
v 5.263395 1.000000 0.148315
v 5.263395 1.000000 -0.148315
v 6.425479 -1.000000 -1.000000
v 5.292777 -1.000000 -1.000000
v 0.732775 -1.267225 1.000000
v 1.000000 -1.267225 0.732775
v 1.267225 -1.000000 1.000000
v -0.732775 -1.267225 1.000000
v -1.245424 -0.919059 0.993722
v -1.000000 -1.267225 0.732775
v 0.732775 -1.267225 -1.000000
v 1.267225 -1.000000 -1.000000
v 1.000000 -1.267225 -0.732775
v -1.178096 -1.076394 -1.000000
v -0.732775 -1.267225 -1.000000
v -1.000000 -1.267225 -0.732775
v -0.732775 -2.718014 1.000000
v -1.000000 -2.718014 0.732775
v -0.732775 -2.985240 0.732775
v 0.732775 -2.718014 1.000000
v 0.732775 -2.985240 0.732775
v 1.000000 -2.718014 0.732775
v -1.000000 -2.718014 -0.732775
v -0.732775 -2.718014 -1.000000
v -0.732775 -2.985240 -0.732775
v 0.732775 -2.718014 -1.000000
v 1.000000 -2.718014 -0.732775
v 0.732775 -2.985240 -0.732775
v 6.191710 -1.204286 -0.561945
v 5.987424 -1.204286 -0.766231
v 6.395996 -1.000000 -0.970517
v 5.987424 -1.204286 0.766230
v 6.191710 -1.204286 0.561944
v 6.395996 -1.000000 0.970516
v 5.730833 -1.204286 -0.766231
v 5.526546 -1.204286 -0.561945
v 5.322260 -1.000000 -0.970517
v 5.730833 -1.204286 0.766230
v 5.322260 -1.000000 0.970516
v 5.526546 -1.204286 0.561944
v 5.730833 -1.849869 0.766230
v 5.526546 -1.849869 0.561944
v 5.730833 -2.054155 0.561944
v 5.987424 -1.849869 0.766230
v 5.987424 -2.054155 0.561944
v 6.191710 -1.849869 0.561944
v 6.191710 -1.849869 -0.561945
v 5.987424 -2.054155 -0.561945
v 5.987424 -1.849869 -0.766231
v 5.730833 -1.849869 -0.766231
v 5.730833 -2.054155 -0.561945
v 5.526546 -1.849869 -0.561945
v 8.694073 -0.371769 0.654493
v 8.411348 -0.937217 0.937217
v 8.694073 -0.654493 0.371768
v 8.694073 0.371769 0.654493
v 8.694073 0.654493 0.371768
v 8.411348 0.937217 0.937217
v 8.694073 0.371769 -0.654493
v 8.411348 0.937217 -0.937218
v 8.694073 0.654493 -0.371769
v 8.694073 -0.371769 -0.654493
v 8.694073 -0.654493 -0.371769
v 8.411348 -0.937217 -0.937218
v 12.670164 -0.371769 0.654493
v 12.670164 -0.654493 0.371768
v 12.952888 -0.371769 0.371768
v 12.670164 0.371769 0.654493
v 12.952888 0.371769 0.371768
v 12.670164 0.654493 0.371768
v 12.670164 0.371769 -0.654494
v 12.670164 0.654493 -0.371769
v 12.952888 0.371769 -0.371769
v 12.670164 -0.371769 -0.654494
v 12.952888 -0.371769 -0.371769
v 12.670164 -0.654493 -0.371769
v 5.292777 1.000000 -1.000000
v 6.425479 1.000000 -1.000000
v 5.263395 1.341545 -0.148315
v 6.454862 1.341545 -0.148315
v 6.454862 1.341545 0.148315
v 5.263395 1.341545 0.148315
v 1.000000 1.000000 1.000000
v 1.000000 1.000000 -1.000000
v -0.662823 1.000000 0.000000
v 0.662823 1.000000 -0.000000
v -0.662823 1.346855 0.662823
v 0.662823 1.346855 -0.000000
v 0.662823 1.346855 0.662823
v -0.662823 1.346855 0.000000
v -0.662823 1.342380 0.000000
v -0.662823 1.342380 -0.662823
v 0.662823 1.342380 -0.662823
v 0.662823 1.342380 -0.000000
v 4.227901 -1.000000 1.000000
v 2.401167 -0.376474 1.000000
v 4.205863 -0.376474 1.000000
v 1.100599 0.247086 1.000000
v 2.342534 0.247086 1.000000
v 4.183824 0.247086 1.000000
v 2.401167 -0.376474 4.113066
v 4.205863 -0.376474 4.113066
v 2.342534 0.247086 4.113066
v 4.183824 0.247086 4.113066
vt 0.319024 0.713684
vt 0.365973 0.813856
vt 0.319024 0.713684
vt 0.604444 0.413988
vt 0.675441 0.565468
vt 0.604609 0.414339
vt 0.652038 0.893266
vt 0.595145 0.999928
vt 0.595145 0.999928
vt 0.318290 0.667194
vt 0.231518 0.829870
vt 0.318290 0.667194
vt 0.407869 0.410070
vt 0.437721 0.248551
vt 0.464054 0.304736
vt 0.614073 0.434532
vt 0.665977 0.545275
vt 0.665977 0.545276
vt 0.615337 0.356290
vt 0.674177 0.037929
vt 0.726081 0.148673
vt 0.416059 0.719957
vt 0.369110 0.619785
vt 0.369110 0.619785
vt 0.485418 0.264684
vt 0.459085 0.208499
vt 0.459085 0.208499
vt 0.360172 0.393937
vt 0.386505 0.450122
vt 0.386505 0.450122
vt 0.385167 0.532902
vt 0.533776 0.263210
vt 0.382647 0.546540
vt 0.318290 0.667194
vt 0.471223 0.129745
vt 0.471223 0.129745
vt 0.471223 0.129745
vt 0.474067 0.326100
vt 0.472408 0.132273
vt 0.524312 0.243017
vt 0.524312 0.243017
vt 0.518262 0.230108
vt 0.478458 0.145182
vt 0.478458 0.145182
vt 0.525497 0.245545
vt 0.525497 0.245545
vt 0.525497 0.245545
vt 0.518262 0.230108
vt 0.478458 0.145182
vt 0.478458 0.145182
vt 0.462944 0.112081
vt 0.462944 0.112081
vt 0.463988 0.114309
vt 0.532732 0.260982
vt 0.533776 0.263210
vt 0.532732 0.260982
vt 0.736810 0.696405
vt 0.746274 0.716597
vt 0.746274 0.716597
vt 0.684905 0.585661
vt 0.675379 0.565335
vt 0.543240 0.283403
vt 0.533776 0.263210
vt 0.616689 0.416974
vt 0.595145 0.394146
vt 0.746274 0.110816
vt 0.735545 0.168865
vt 0.694369 0.000072
vt 0.664713 0.017736
vt 0.624801 0.376483
vt 0.595145 0.394146
vt 0.543240 0.283403
vt 0.553969 0.225353
vt 0.563433 0.245546
vt 0.462944 0.112081
vt 0.614073 0.434532
vt 0.736810 0.696405
vt 0.684905 0.585661
vt 0.518262 0.230108
vt 0.478458 0.145182
vt 0.463988 0.114309
vt 0.471223 0.129745
vt 0.478458 0.145182
vt 0.518262 0.230108
vt 0.518262 0.230108
vt 0.525497 0.245545
vt 0.518262 0.230108
vt 0.427708 0.227187
vt 0.460423 0.125719
vt 0.371523 0.332520
vt 0.318782 0.391261
vt 0.417882 0.431433
vt 0.474067 0.326100
vt 0.526808 0.267360
vt 0.427708 0.227187
vt 0.371523 0.332520
vt 0.381536 0.353884
vt 0.360172 0.393937
vt 0.417882 0.431433
vt 0.485418 0.264684
vt 0.315887 0.907755
vt 0.319024 0.713684
vt 0.365973 0.813856
vt 0.295875 0.709216
vt 0.382647 0.546540
vt 0.382647 0.546540
vt 0.295875 0.709216
vt 0.295875 0.709216
vt 0.295875 0.709216
vt 0.318290 0.667194
vt 0.268938 0.807583
vt 0.315887 0.907755
vt 0.268938 0.807583
vt 0.365973 0.813856
vt 0.416059 0.719957
vt 0.524312 0.243017
vt 0.533776 0.263210
vt 0.652038 0.893266
vt 0.652038 0.893266
vt 0.382647 0.546540
vt 0.453479 0.697669
vt 0.699157 0.804929
vt 0.652038 0.893266
vt 0.524312 0.848798
vt 0.311814 0.395411
vt 0.699157 0.804929
vt 0.652038 0.893266
vt 0.699157 0.804929
vt 0.699157 0.804929
vt 0.755738 0.736790
vt 0.660633 0.558389
vt 0.746274 0.716597
vt 0.746274 0.716597
vt 0.231518 0.829870
vt 0.472408 0.132273
vt 0.746274 0.716597
vt 0.604612 0.414333
vt 0.302350 0.980999
vn 0.0000 0.0000 1.0000
vn 0.3942 -0.9190 0.0000
vn 0.0000 1.0000 0.0000
vn 1.0000 0.0000 0.0000
vn -1.0000 0.0000 0.0000
vn 0.0000 -1.0000 0.0000
vn 0.0000 0.0000 -1.0000
vn 0.7071 0.0000 -0.7071
vn 0.4082 -0.8165 0.4082
vn -0.4929 -0.7169 0.4929
vn 0.4082 -0.8165 -0.4082
vn -0.3665 -0.8552 -0.3665
vn -0.5774 -0.5774 0.5774
vn 0.5774 -0.5774 0.5774
vn -0.5774 -0.5774 -0.5774
vn 0.5774 -0.5774 -0.5774
vn -0.7493 -0.6616 0.0269
vn 0.7071 -0.7071 0.0000
vn 0.0000 -0.7071 0.7071
vn -0.7071 -0.7071 0.0000
vn -0.0000 -0.7071 -0.7071
vn -0.7071 0.0000 -0.7071
vn 0.7071 0.0000 0.7071
vn -0.7071 0.0000 0.7071
vn 0.3015 -0.9045 -0.3015
vn 0.3015 -0.9045 0.3015
vn -0.3015 -0.9045 -0.3015
vn -0.3015 -0.9045 0.3015
vn -0.5774 -0.5773 0.5774
vn 0.5774 -0.5773 0.5774
vn 0.5774 -0.5773 -0.5774
vn -0.5774 -0.5773 -0.5774
vn 0.9045 -0.3015 0.3015
vn 0.9045 0.3015 0.3015
vn 0.9045 0.3015 -0.3015
vn 0.9045 -0.3015 -0.3015
vn 0.5774 0.5773 0.5774
vn 0.5774 0.5774 -0.5774
vn 0.7071 0.7071 0.0000
vn 0.0000 0.7071 0.7071
vn -0.0000 0.7071 -0.7071
vn -0.0407 0.9788 -0.2009
vn -0.9956 -0.0936 0.0000
vn 0.9994 0.0353 0.0000
vn 0.4267 -0.9003 0.0855
vn -0.0256 0.0000 0.9997
vn -0.0067 0.0081 0.9999
vn -0.0180 0.0177 0.9997
vn -0.0025 -0.0003 1.0000
vn -0.8173 -0.5762 0.0000
vn -0.0267 0.0000 -0.9996
vn -0.0180 0.0189 -0.9997
vn -0.0407 0.9788 0.2009
vn -0.0520 0.9986 0.0000
usemtl Material
s off
f 108/1/1 99/2/1 100/3/1
f 28/4/2 6/5/2 7/6/2
f 114/7/1 10/8/1 97/9/1
f 15/10/3 10/11/3 14/12/3
f 87/13/4 81/14/4 89/15/4
f 30/16/5 32/17/5 24/18/5
f 39/19/6 35/20/6 33/21/6
f 4/22/7 107/23/7 3/24/7
f 77/25/6 80/26/6 69/27/6
f 71/28/3 86/29/3 75/30/3
f 74/31/4 12/32/4 11/33/4
f 14/12/1 96/34/1 15/10/1
f 52/35/1 58/36/1 46/37/1
f 88/38/8 87/13/8 89/15/8
f 20/39/4 41/40/4 27/41/4
f 50/42/5 56/43/5 54/44/5
f 44/45/7 64/46/7 49/47/7
f 65/48/6 59/49/6 57/50/6
f 9/51/6 109/52/6 48/53/6
f 51/54/6 17/55/6 45/56/6
f 19/57/9 20/58/9 21/59/9
f 22/60/10 23/61/10 24/18/10
f 25/62/11 26/63/11 27/41/11
f 28/64/12 29/65/12 30/16/12
f 31/66/13 32/67/13 33/21/13
f 34/68/14 35/20/14 36/69/14
f 37/70/15 38/71/15 39/19/15
f 40/72/16 41/73/16 42/74/16
f 30/16/17 23/61/17 28/4/17
f 27/41/18 21/75/18 20/39/18
f 35/20/19 31/66/19 33/21/19
f 33/21/20 37/70/20 39/19/20
f 39/19/21 40/72/21 42/74/21
f 42/74/18 36/69/18 35/20/18
f 41/40/8 25/62/8 27/41/8
f 30/16/22 38/71/22 37/76/22
f 34/77/23 20/58/23 19/57/23
f 22/60/24 32/17/24 31/78/24
f 43/79/25 44/45/25 45/56/25
f 46/37/26 47/80/26 48/53/26
f 49/47/27 50/42/27 51/54/27
f 52/35/28 53/81/28 54/44/28
f 55/82/29 56/43/29 57/50/29
f 58/36/30 59/49/30 60/83/30
f 61/84/31 62/85/31 63/86/31
f 64/46/32 65/48/32 66/87/32
f 46/37/19 53/81/19 52/35/19
f 48/53/18 43/79/18 45/56/18
f 49/47/21 45/56/21 44/45/21
f 54/44/20 51/54/20 50/42/20
f 59/49/19 55/82/19 57/50/19
f 60/83/18 62/85/18 61/84/18
f 65/48/21 63/86/21 62/85/21
f 57/50/20 66/87/20 65/48/20
f 61/84/8 44/45/8 43/79/8
f 50/42/22 64/46/22 66/87/22
f 56/43/24 52/35/24 54/44/24
f 47/80/23 58/36/23 60/83/23
f 47/80/4 61/84/4 43/79/4
f 67/88/33 68/89/33 69/27/33
f 70/90/34 71/28/34 72/91/34
f 73/92/35 74/31/35 75/30/35
f 76/93/36 77/25/36 78/94/36
f 79/95/30 80/26/30 81/14/30
f 82/96/37 83/97/37 84/98/37
f 85/99/38 86/29/38 87/13/38
f 88/38/16 89/15/16 90/100/16
f 78/94/18 69/27/18 68/89/18
f 72/91/39 75/30/39 74/31/39
f 101/101/3 102/102/3 104/103/3
f 67/88/1 82/96/1 70/90/1
f 90/100/18 81/14/18 80/26/18
f 84/98/39 87/13/39 86/29/39
f 88/38/21 77/25/21 76/93/21
f 67/88/19 80/26/19 79/95/19
f 71/28/40 82/96/40 84/98/40
f 73/92/41 86/29/41 85/99/41
f 16/104/3 92/105/3 91/106/3
f 96/34/3 94/107/3 93/108/3
f 16/104/7 94/107/7 13/109/7
f 15/10/5 93/108/5 16/104/5
f 13/109/4 95/110/4 14/12/4
f 1/111/1 101/101/1 2/112/1
f 100/3/4 103/113/4 1/111/4
f 105/114/3 107/23/3 106/115/3
f 99/2/7 102/102/7 100/3/7
f 2/112/5 104/103/5 99/2/5
f 3/24/4 108/1/4 100/3/4
f 99/2/5 106/115/5 4/22/5
f 26/116/7 91/106/7 18/117/7
f 113/118/3 118/119/3 114/7/3
f 4/22/42 98/120/42 8/121/42
f 70/90/23 68/89/23 67/88/23
f 21/59/1 110/122/1 112/123/1
f 5/124/5 7/6/5 6/5/5
f 83/97/23 79/95/23 81/14/23
f 78/94/8 73/92/8 76/93/8
f 73/92/7 88/38/7 76/93/7
f 72/91/4 10/125/4 9/51/4
f 115/126/1 118/119/1 117/127/1
f 110/122/43 117/127/43 113/118/43
f 111/128/6 115/126/6 110/122/6
f 114/7/44 116/129/44 111/128/44
f 108/1/1 105/114/1 99/2/1
f 28/4/45 23/61/45 6/5/45
f 22/60/1 31/78/1 34/77/1
f 19/57/1 21/130/1 112/123/1
f 22/60/1 34/77/1 19/57/1
f 5/124/46 6/5/46 23/131/46
f 23/131/47 22/60/47 112/123/47
f 22/60/1 19/57/1 112/123/1
f 112/123/1 113/118/1 97/9/1
f 113/118/1 114/7/1 97/9/1
f 97/9/48 5/124/48 23/131/48
f 109/132/1 9/133/1 111/128/1
f 9/133/1 10/8/1 111/128/1
f 114/7/1 111/128/1 10/8/1
f 97/9/49 23/131/49 112/123/49
f 16/104/3 91/106/3 98/120/3
f 98/120/3 3/24/3 100/3/3
f 100/3/3 1/111/3 97/134/3
f 10/11/3 11/33/3 13/109/3
f 11/33/3 92/105/3 13/109/3
f 100/3/3 97/134/3 98/120/3
f 97/134/3 10/11/3 15/10/3
f 16/104/3 98/120/3 97/134/3
f 15/10/3 16/104/3 97/134/3
f 10/11/3 13/109/3 14/12/3
f 87/13/4 83/97/4 81/14/4
f 30/16/5 37/76/5 32/17/5
f 39/19/6 42/74/6 35/20/6
f 4/22/7 106/115/7 107/23/7
f 77/25/6 90/100/6 80/26/6
f 71/28/3 84/98/3 86/29/3
f 74/31/4 78/94/4 12/32/4
f 14/12/1 95/110/1 96/34/1
f 52/35/1 55/82/1 58/36/1
f 88/38/8 85/99/8 87/13/8
f 20/39/4 36/135/4 41/40/4
f 50/42/5 66/87/5 56/43/5
f 44/45/7 63/86/7 64/46/7
f 65/48/6 62/85/6 59/49/6
f 21/75/6 26/63/6 109/52/6
f 26/63/6 18/117/6 109/52/6
f 18/117/6 51/54/6 109/52/6
f 51/54/6 53/81/6 109/52/6
f 48/53/6 45/56/6 17/55/6
f 48/53/6 17/55/6 9/51/6
f 17/55/6 12/32/6 9/51/6
f 53/81/6 48/53/6 109/52/6
f 51/54/6 18/117/6 17/55/6
f 30/16/50 24/18/50 23/61/50
f 27/41/18 26/63/18 21/75/18
f 35/20/19 34/68/19 31/66/19
f 33/21/20 32/67/20 37/70/20
f 39/19/21 38/71/21 40/72/21
f 42/74/18 41/73/18 36/69/18
f 41/40/8 40/72/8 25/62/8
f 30/16/22 29/65/22 38/71/22
f 34/77/23 36/136/23 20/58/23
f 22/60/24 24/18/24 32/17/24
f 46/37/19 48/53/19 53/81/19
f 48/53/18 47/80/18 43/79/18
f 49/47/21 51/54/21 45/56/21
f 54/44/20 53/81/20 51/54/20
f 59/49/19 58/36/19 55/82/19
f 60/83/18 59/49/18 62/85/18
f 65/48/21 64/46/21 63/86/21
f 57/50/20 56/43/20 66/87/20
f 61/84/8 63/86/8 44/45/8
f 50/42/22 49/47/22 64/46/22
f 56/43/24 55/82/24 52/35/24
f 47/80/23 46/37/23 58/36/23
f 47/80/4 60/83/4 61/84/4
f 78/94/18 77/25/18 69/27/18
f 72/91/39 71/28/39 75/30/39
f 101/101/3 103/113/3 102/102/3
f 67/88/1 79/95/1 82/96/1
f 90/100/18 89/15/18 81/14/18
f 84/98/39 83/97/39 87/13/39
f 88/38/21 90/100/21 77/25/21
f 67/88/19 69/27/19 80/26/19
f 71/28/40 70/90/40 82/96/40
f 73/92/41 75/30/41 86/29/41
f 16/104/3 13/109/3 92/105/3
f 96/34/3 95/110/3 94/107/3
f 16/104/7 93/108/7 94/107/7
f 15/10/5 96/34/5 93/108/5
f 13/109/4 94/107/4 95/110/4
f 1/111/1 103/113/1 101/101/1
f 100/3/4 102/102/4 103/113/4
f 105/114/3 108/1/3 107/23/3
f 99/2/7 104/103/7 102/102/7
f 2/112/5 101/101/5 104/103/5
f 3/24/4 107/23/4 108/1/4
f 99/2/5 105/114/5 106/115/5
f 28/137/51 7/6/51 8/121/51
f 8/121/52 98/120/52 28/137/52
f 98/120/7 91/106/7 26/116/7
f 29/65/7 98/120/7 25/62/7
f 91/106/7 92/105/7 17/55/7
f 92/105/7 11/33/7 12/32/7
f 91/106/7 17/55/7 18/117/7
f 12/32/7 17/55/7 92/105/7
f 98/120/7 29/65/7 28/137/7
f 98/120/7 26/116/7 25/62/7
f 40/72/7 38/71/7 29/65/7
f 25/62/7 40/72/7 29/65/7
f 113/118/3 117/127/3 118/119/3
f 4/22/3 3/24/3 98/120/3
f 5/138/53 97/134/53 2/112/53
f 97/134/3 1/111/3 2/112/3
f 2/112/54 99/2/54 5/138/54
f 99/2/54 4/22/54 8/121/54
f 5/138/54 99/2/54 8/121/54
f 70/90/23 72/91/23 68/89/23
f 21/59/1 109/132/1 110/122/1
f 109/132/1 111/128/1 110/122/1
f 110/122/1 113/118/1 112/123/1
f 5/124/5 8/121/5 7/6/5
f 83/97/23 82/96/23 79/95/23
f 78/94/8 74/31/8 73/92/8
f 73/92/7 85/99/7 88/38/7
f 72/91/4 74/31/4 11/33/4
f 9/51/4 12/32/4 78/94/4
f 9/51/4 78/94/4 68/89/4
f 72/91/4 11/33/4 10/125/4
f 9/51/4 68/89/4 72/91/4
f 115/126/1 116/129/1 118/119/1
f 110/122/43 115/126/43 117/127/43
f 111/128/6 116/129/6 115/126/6
f 114/7/44 118/119/44 116/129/44
