# Blender v3.4.1 OBJ File: 'meat 1.blend'
# www.blender.org
mtllib meat 1.mtl
o Icosphere
v 0.000000 -1.675342 0.000000
v 0.723607 -0.749246 0.661250
v -0.276388 -0.749246 1.069934
v -0.894426 -0.749239 0.000000
v -0.433630 -0.928982 -1.449551
v 0.809924 -0.803353 -0.725256
v 0.157199 0.560927 0.719066
v -0.628325 0.690331 0.591979
v -0.638943 0.686759 -0.610673
v 0.164225 0.496185 -0.760540
v 0.681984 0.639131 0.007525
v 0.000000 1.675342 0.000000
v -0.162456 -1.425137 0.628887
v 0.425323 -1.425137 0.388670
v 0.262869 -0.880790 1.017563
v 0.850648 -0.880787 0.000000
v 0.496238 -1.580649 -0.420420
v -0.564041 -1.487121 0.000000
v -0.688189 -0.880788 0.628889
v -0.241136 -1.931404 -0.793929
v -0.829485 -0.980155 -0.710946
v 0.401021 -1.143101 -1.424103
v 0.951058 0.000000 0.388672
v 0.945347 -0.003280 -0.387849
v 0.000000 0.000000 1.257785
v 0.587786 0.000000 1.017569
v -0.951058 0.000000 0.388672
v -0.587786 0.000000 1.017569
v -0.720908 -0.000000 -1.200796
v -0.951058 0.000000 -0.388672
v 0.679062 0.000000 -1.143201
v -0.000399 -0.000000 -1.563050
v 0.471946 0.708805 0.453099
v -0.193498 0.726001 0.776762
v -0.850648 0.880787 0.000000
v -0.200354 0.723009 -0.851590
v 0.452355 0.678425 -0.470680
v 0.162456 1.425137 0.628887
v 0.525730 1.425132 0.000000
v -0.425162 1.425037 0.388554
v -0.425323 1.425137 -0.388670
v 0.162456 1.425137 -0.628887
vt 0.181819 0.000000
vt 0.227273 0.078731
vt 0.136365 0.078731
vt 0.272728 0.157461
vt 0.318182 0.078731
vt 0.363637 0.157461
vt 0.909091 0.000000
vt 0.954545 0.078731
vt 0.863636 0.078731
vt 0.727273 0.000000
vt 0.772727 0.078731
vt 0.681818 0.078731
vt 0.545455 0.000000
vt 0.590909 0.078731
vt 0.500000 0.078731
vt 0.318182 0.236191
vt 0.090910 0.157461
vt 0.181819 0.157461
vt 0.136365 0.236191
vt 0.818182 0.157461
vt 0.909091 0.157461
vt 0.863636 0.236191
vt 0.636364 0.157461
vt 0.727273 0.157461
vt 0.681818 0.236191
vt 0.454546 0.157461
vt 0.545455 0.157461
vt 0.500000 0.236191
vt 0.227273 0.236191
vt 0.045455 0.236191
vt 0.772727 0.236191
vt 0.590909 0.236191
vt 0.409092 0.236191
vt 0.181819 0.314921
vt 0.272728 0.314921
vt 0.227273 0.393651
vt 0.000000 0.314921
vt 0.090910 0.314921
vt 0.045455 0.393651
vt 0.727273 0.314921
vt 0.818182 0.314921
vt 0.772727 0.393651
vt 0.545455 0.314921
vt 0.636364 0.314921
vt 0.590909 0.393651
vt 0.363637 0.314921
vt 0.454546 0.314921
vt 0.409092 0.393651
vt 0.500000 0.393651
vt 0.454546 0.472382
vt 0.681818 0.393651
vt 0.636364 0.472382
vt 0.863636 0.393651
vt 0.818182 0.472382
vt 0.909091 0.314921
vt 0.136365 0.393651
vt 0.090910 0.472382
vt 0.318182 0.393651
vt 0.272728 0.472382
vt 0.954545 0.236191
vt 1.000000 0.157461
vt 0.409092 0.078731
vt 0.363637 0.000000
vn 0.1639 -0.9013 0.4009
vn 0.8419 -0.4749 0.2562
vn -0.3036 -0.9097 0.2835
vn -0.2937 -0.8801 0.3731
vn 0.3397 -0.9204 0.1937
vn 0.9522 -0.2075 0.2242
vn 0.0319 -0.2541 0.9666
vn -0.9414 -0.2087 0.2651
vn -0.8684 -0.1413 -0.4752
vn 0.8791 -0.0993 -0.4661
vn 0.8631 -0.0806 0.4986
vn -0.3767 -0.0921 0.9217
vn -0.9972 -0.0754 0.0000
vn -0.4470 0.0998 -0.8890
vn 0.9429 -0.0194 -0.3325
vn 0.6220 0.0775 0.7792
vn -0.3910 0.3444 0.8535
vn -0.8379 0.3646 -0.4063
vn 0.3176 0.1336 -0.9388
vn 0.8933 0.1736 -0.4147
vn 0.4171 0.8764 -0.2409
vn 0.8438 0.2243 -0.4874
vn 0.6714 0.1052 -0.7336
vn -0.1639 0.9013 -0.4009
vn -0.3398 0.4394 -0.8315
vn -0.4698 0.3760 -0.7987
vn -0.5072 0.8618 0.0002
vn -0.7879 0.6158 0.0002
vn -0.8349 0.3488 0.4258
vn -0.1641 0.9013 0.4010
vn -0.3529 0.3622 0.8627
vn 0.2073 0.1003 0.9731
vn 0.4171 0.8764 0.2409
vn 0.8398 0.2438 0.4851
vn 0.9000 0.1827 0.3957
vn 0.7829 0.5257 -0.3327
vn 0.7942 0.5406 -0.2776
vn 0.2064 0.7228 -0.6596
vn 0.5411 0.6611 -0.5198
vn -0.3585 0.6025 -0.7131
vn -0.4163 0.6206 -0.6645
vn -0.8788 0.2729 -0.3914
vn -0.9936 0.1133 0.0000
vn -0.8648 0.2819 0.4155
vn -0.3776 0.4698 0.7979
vn -0.3367 0.4561 0.8238
vn 0.3902 0.5786 0.7163
vn 0.3136 0.6224 0.7172
vn 0.7620 0.4750 0.4401
vn 0.8032 0.5158 0.2980
vn 0.3363 0.7686 -0.5442
vn 0.5239 0.0809 -0.8479
vn -0.0008 -0.1209 -0.9927
vn -0.9083 0.3296 -0.2574
vn -0.9617 -0.0297 -0.2725
vn -0.9929 -0.1045 -0.0568
vn -0.8386 0.2494 0.4844
vn -0.8595 -0.1211 0.4965
vn -0.6756 -0.2319 0.6999
vn 0.2979 0.6165 0.7288
vn 0.3747 -0.1382 0.9168
vn 0.6357 -0.2345 0.7354
vn 0.9234 0.3837 -0.0084
vn 0.9939 -0.1103 -0.0068
vn 0.9880 -0.1376 -0.0702
vn 0.8484 -0.4511 -0.2771
vn 0.5468 -0.7473 -0.3776
vn -0.1185 -0.5593 -0.8204
vn -0.7776 -0.4419 -0.4474
vn -0.8513 -0.5218 -0.0542
vn -0.9116 -0.4082 0.0493
vn -0.8925 -0.3996 0.2091
vn -0.6361 -0.6144 0.4668
vn -0.5403 -0.5218 0.6601
vn 0.9098 -0.4041 -0.0942
vn 0.8324 -0.5261 0.1741
vn 0.3492 -0.9141 0.2063
vn -0.0539 -0.5520 0.8321
vn 0.2734 -0.6912 0.6689
vn 0.6120 -0.5129 0.6020
usemtl None
s off
f 1/1/1 14/2/1 13/3/1
f 2/4/2 14/5/2 16/6/2
f 1/7/3 13/8/3 18/9/3
f 1/10/4 18/11/4 20/12/4
f 1/13/5 20/14/5 17/15/5
f 2/4/6 16/6/6 23/16/6
f 3/17/7 15/18/7 25/19/7
f 4/20/8 19/21/8 27/22/8
f 5/23/9 21/24/9 29/25/9
f 6/26/10 22/27/10 31/28/10
f 2/4/11 23/16/11 26/29/11
f 3/17/12 25/19/12 28/30/12
f 4/20/13 27/22/13 30/31/13
f 5/23/14 29/25/14 32/32/14
f 6/26/15 31/28/15 24/33/15
f 7/34/16 33/35/16 38/36/16
f 8/37/17 34/38/17 40/39/17
f 9/40/18 35/41/18 41/42/18
f 10/43/19 36/44/19 42/45/19
f 11/46/20 37/47/20 39/48/20
f 39/48/21 42/49/21 12/50/21
f 39/48/22 37/47/22 42/49/22
f 37/47/23 10/43/23 42/49/23
f 42/45/24 41/51/24 12/52/24
f 42/45/25 36/44/25 41/51/25
f 36/44/26 9/40/26 41/51/26
f 41/42/27 40/53/27 12/54/27
f 41/42/28 35/41/28 40/53/28
f 35/41/29 8/55/29 40/53/29
f 40/39/30 38/56/30 12/57/30
f 40/39/31 34/38/31 38/56/31
f 34/38/32 7/34/32 38/56/32
f 38/36/33 39/58/33 12/59/33
f 38/36/34 33/35/34 39/58/34
f 33/35/35 11/46/35 39/58/35
f 24/33/36 37/47/36 11/46/36
f 24/33/37 31/28/37 37/47/37
f 31/28/38 10/43/38 37/47/38
f 32/32/39 36/44/39 10/43/39
f 32/32/40 29/25/40 36/44/40
f 29/25/41 9/40/41 36/44/41
f 30/31/42 35/41/42 9/40/42
f 30/31/43 27/22/43 35/41/43
f 27/22/44 8/55/44 35/41/44
f 28/30/45 34/38/45 8/37/45
f 28/30/46 25/19/46 34/38/46
f 25/19/47 7/34/47 34/38/47
f 26/29/48 33/35/48 7/34/48
f 26/29/49 23/16/49 33/35/49
f 23/16/50 11/46/50 33/35/50
f 31/28/51 32/32/51 10/43/51
f 31/28/52 22/27/52 32/32/52
f 22/27/53 5/23/53 32/32/53
f 29/25/54 30/31/54 9/40/54
f 29/25/55 21/24/55 30/31/55
f 21/24/56 4/20/56 30/31/56
f 27/22/57 28/60/57 8/55/57
f 27/22/58 19/21/58 28/60/58
f 19/21/59 3/61/59 28/60/59
f 25/19/60 26/29/60 7/34/60
f 25/19/61 15/18/61 26/29/61
f 15/18/62 2/4/62 26/29/62
f 23/16/63 24/33/63 11/46/63
f 23/16/64 16/6/64 24/33/64
f 16/6/65 6/26/65 24/33/65
f 17/15/66 22/27/66 6/26/66
f 17/15/67 20/14/67 22/27/67
f 20/14/68 5/23/68 22/27/68
f 20/12/69 21/24/69 5/23/69
f 20/12/70 18/11/70 21/24/70
f 18/11/71 4/20/71 21/24/71
f 18/9/72 19/21/72 4/20/72
f 18/9/73 13/8/73 19/21/73
f 13/8/74 3/61/74 19/21/74
f 16/6/75 17/62/75 6/26/75
f 16/6/76 14/5/76 17/62/76
f 14/5/77 1/63/77 17/62/77
f 13/3/78 15/18/78 3/17/78
f 13/3/79 14/2/79 15/18/79
f 14/2/80 2/4/80 15/18/80
