# Blender v3.4.1 OBJ File: 'meat 5.blend'
# www.blender.org
mtllib meat 5.mtl
o Cube
v 1.000000 1.000000 -1.000000
v 0.355861 0.348984 -0.394826
v 1.000000 1.000000 1.000000
v 0.355861 0.348984 0.394826
v -1.000000 1.000000 -1.000000
v -0.355861 0.348984 -0.394826
v -1.000000 1.000000 1.000000
v -0.355861 0.348984 0.394826
v 0.000000 2.697918 0.000000
vt 0.625000 1.000000
vt 0.625000 0.750000
vt 0.750000 0.500000
vt 0.375000 1.000000
vt 0.375000 0.750000
vt 0.625000 0.000000
vt 0.375000 0.250000
vt 0.375000 0.000000
vt 0.375000 0.500000
vt 0.125000 0.750000
vt 0.125000 0.500000
vt 0.625000 0.500000
vt 0.625000 0.250000
vn 0.0000 0.5075 0.8617
vn 0.0000 -0.6808 0.7324
vn -0.7109 -0.7033 0.0000
vn 0.0000 -1.0000 0.0000
vn 0.7109 -0.7033 0.0000
vn 0.0000 -0.6808 -0.7324
vn -0.8617 0.5075 0.0000
vn 0.8617 0.5075 0.0000
vn 0.0000 0.5075 -0.8617
usemtl Material
s off
f 7/1/1 3/2/1 9/3/1
f 3/2/2 8/4/2 4/5/2
f 7/6/3 6/7/3 8/8/3
f 2/9/4 8/10/4 6/11/4
f 1/12/5 4/5/5 2/9/5
f 5/13/6 2/9/6 6/7/6
f 5/13/7 7/6/7 9/3/7
f 3/2/8 1/12/8 9/3/8
f 1/12/9 5/13/9 9/3/9
f 3/2/2 7/1/2 8/4/2
f 7/6/3 5/13/3 6/7/3
f 2/9/4 4/5/4 8/10/4
f 1/12/5 3/2/5 4/5/5
f 5/13/6 1/12/6 2/9/6
