# Blender 3.4.1
# www.blender.org
mtllib meat 3.mtl
o Icosphere
v 0.000000 -1.675342 0.000000
v 0.631843 -0.407386 0.427415
v -0.276388 -0.749246 1.069934
v -0.894426 -0.749239 0.000000
v -0.433630 -0.928982 -1.449551
v 0.799026 -0.353547 -0.506524
v 0.253772 0.679258 0.954751
v -0.628325 0.690331 0.591979
v -0.638941 0.689053 -0.613428
v 0.302098 0.784374 -1.106716
v 1.616260 1.394736 0.029396
v 0.053947 1.982483 0.110675
v -0.162456 -1.425137 0.628887
v 0.399773 -1.396514 0.361794
v 0.212658 -0.792941 0.891982
v 0.994214 -0.547294 -0.031353
v 0.319884 -1.303061 -0.403298
v -0.564041 -1.487121 0.000000
v -0.688189 -0.880788 0.628889
v -0.241136 -1.931404 -0.793929
v -0.829485 -0.980155 -0.710946
v 0.091373 -0.818826 -0.906841
v 1.645296 0.269674 0.415933
v 1.754639 0.382768 -0.506409
v 0.006172 0.032464 1.373532
v 0.838082 0.108282 1.285120
v -0.951058 0.000000 0.388672
v -0.587786 0.000000 1.017569
v -0.720908 -0.000000 -1.200796
v -0.951058 0.000000 -0.388672
v 1.038944 0.228626 -1.423994
v 0.045020 0.154044 -1.829010
v 1.122640 1.194729 0.882975
v -0.193206 0.727540 0.782250
v -0.850648 0.880787 0.000000
v -0.177190 0.886687 -1.050456
v 1.230150 1.448322 -0.987516
v 0.304020 1.794823 1.086853
v 1.199909 2.256446 -0.129390
v -0.425162 1.425037 0.388554
v -0.425469 1.427252 -0.390013
v 0.296927 1.652583 -0.803074
vn 0.2404 -0.8790 0.4118
vn 0.7335 -0.2149 0.6449
vn -0.3036 -0.9097 0.2835
vn -0.2937 -0.8801 0.3731
vn 0.7504 -0.6608 -0.0148
vn 0.4605 -0.6796 0.5710
vn 0.2739 -0.4326 0.8590
vn -0.9414 -0.2087 0.2651
vn -0.8684 -0.1413 -0.4752
vn 0.6347 -0.7168 -0.2889
vn 0.5246 -0.7794 0.3425
vn -0.5023 -0.1492 0.8517
vn -0.9972 -0.0754 -0.0000
vn -0.6354 0.0103 -0.7721
vn 0.5774 -0.7493 -0.3245
vn 0.1540 -0.1230 0.9804
vn -0.4006 0.3457 0.8485
vn -0.8391 0.3648 -0.4036
vn -0.0404 0.3296 -0.9432
vn 0.8764 0.3657 -0.3135
vn -0.2908 0.8726 -0.3924
vn 0.0240 0.7282 -0.6849
vn -0.1137 0.3274 -0.9380
vn -0.4762 0.7790 -0.4079
vn -0.5382 0.5417 -0.6457
vn -0.7161 0.3836 -0.5832
vn -0.7579 0.6524 0.0022
vn -0.7885 0.6150 0.0021
vn -0.8349 0.3488 0.4258
vn -0.6443 0.7034 0.3003
vn -0.7214 0.1426 0.6777
vn -0.3672 -0.0931 0.9255
vn -0.1804 0.9563 0.2301
vn 0.5583 0.5509 0.6203
vn 0.7251 0.4469 0.5240
vn 0.8983 0.2952 -0.3255
vn 0.7762 0.1010 -0.6224
vn -0.1331 0.3524 -0.9263
vn 0.0786 0.7371 -0.6712
vn -0.6117 0.4815 -0.6277
vn -0.6958 0.5121 -0.5036
vn -0.8803 0.2719 -0.3888
vn -0.9936 0.1133 -0.0000
vn -0.8648 0.2819 0.4155
vn -0.3875 0.4672 0.7947
vn -0.4674 0.4912 0.7350
vn -0.2344 0.5900 0.7726
vn -0.1483 0.3772 0.9142
vn 0.7253 0.0637 0.6854
vn 0.8266 0.2018 0.5253
vn 0.2272 0.6923 -0.6850
vn 0.3304 -0.6410 -0.6928
vn 0.6738 -0.4912 -0.5521
vn -0.9090 0.3277 -0.2576
vn -0.9617 -0.0297 -0.2725
vn -0.9929 -0.1045 -0.0568
vn -0.8386 0.2494 0.4844
vn -0.8595 -0.1211 0.4965
vn -0.6756 -0.2319 0.6999
vn 0.0414 0.5318 0.8459
vn 0.1357 -0.4737 0.8702
vn 0.7681 -0.6133 0.1840
vn 0.9897 0.0687 0.1258
vn 0.7779 -0.6282 0.0152
vn 0.5295 -0.6871 -0.4976
vn 0.6347 -0.3926 -0.6656
vn 0.7411 -0.2833 -0.6087
vn 0.7178 -0.2793 -0.6377
vn -0.7776 -0.4419 -0.4474
vn -0.8513 -0.5218 -0.0542
vn -0.9116 -0.4082 0.0493
vn -0.8925 -0.3996 0.2091
vn -0.6361 -0.6144 0.4668
vn -0.5403 -0.5218 0.6601
vn 0.7567 -0.4349 -0.4882
vn 0.7739 -0.6138 -0.1558
vn 0.6574 -0.7367 -0.1586
vn 0.2571 -0.4974 0.8286
vn 0.3835 -0.5395 0.7495
vn 0.8091 -0.2258 0.5426
vt 0.181819 0.000000
vt 0.909091 0.000000
vt 0.727273 0.000000
vt 0.545455 0.000000
vt 0.363637 0.000000
vt 0.272728 0.157461
vt 1.000000 0.157461
vt 0.090910 0.157461
vt 0.818182 0.157461
vt 0.636364 0.157461
vt 0.454546 0.157461
vt 0.181819 0.314921
vt 0.000000 0.314921
vt 0.909091 0.314921
vt 0.727273 0.314921
vt 0.545455 0.314921
vt 0.363637 0.314921
vt 0.454546 0.472382
vt 0.636364 0.472382
vt 0.818182 0.472382
vt 0.090910 0.472382
vt 0.272728 0.472382
vt 0.954545 0.078731
vt 0.136365 0.078731
vt 0.318182 0.078731
vt 0.227273 0.078731
vt 0.181819 0.157461
vt 0.363637 0.157461
vt 0.500000 0.078731
vt 0.409092 0.078731
vt 0.772727 0.078731
vt 0.863636 0.078731
vt 0.909091 0.157461
vt 0.590909 0.078731
vt 0.681818 0.078731
vt 0.727273 0.157461
vt 0.545455 0.157461
vt 0.318182 0.236191
vt 0.409092 0.236191
vt 0.136365 0.236191
vt 0.227273 0.236191
vt 0.863636 0.236191
vt 0.045455 0.236191
vt 0.954545 0.236191
vt 0.681818 0.236191
vt 0.772727 0.236191
vt 0.500000 0.236191
vt 0.590909 0.236191
vt 0.272728 0.314921
vt 0.090910 0.314921
vt 0.818182 0.314921
vt 0.636364 0.314921
vt 0.454546 0.314921
vt 0.136365 0.393651
vt 0.227273 0.393651
vt 0.409092 0.393651
vt 0.318182 0.393651
vt 0.863636 0.393651
vt 0.045455 0.393651
vt 0.681818 0.393651
vt 0.772727 0.393651
vt 0.500000 0.393651
vt 0.590909 0.393651
s 0
f 1/1/1 14/26/1 13/24/1
f 2/6/2 14/25/2 16/28/2
f 1/2/3 13/23/3 18/32/3
f 1/3/4 18/31/4 20/35/4
f 1/4/5 20/34/5 17/29/5
f 2/6/6 16/28/6 23/38/6
f 3/8/7 15/27/7 25/40/7
f 4/9/8 19/33/8 27/42/8
f 5/10/9 21/36/9 29/45/9
f 6/11/10 22/37/10 31/47/10
f 2/6/11 23/38/11 26/41/11
f 3/8/12 25/40/12 28/43/12
f 4/9/13 27/42/13 30/46/13
f 5/10/14 29/45/14 32/48/14
f 6/11/15 31/47/15 24/39/15
f 7/12/16 33/49/16 38/55/16
f 8/13/17 34/50/17 40/59/17
f 9/15/18 35/51/18 41/61/18
f 10/16/19 36/52/19 42/63/19
f 11/17/20 37/53/20 39/56/20
f 39/56/21 42/62/21 12/18/21
f 39/56/22 37/53/22 42/62/22
f 37/53/23 10/16/23 42/62/23
f 42/63/24 41/60/24 12/19/24
f 42/63/25 36/52/25 41/60/25
f 36/52/26 9/15/26 41/60/26
f 41/61/27 40/58/27 12/20/27
f 41/61/28 35/51/28 40/58/28
f 35/51/29 8/14/29 40/58/29
f 40/59/30 38/54/30 12/21/30
f 40/59/31 34/50/31 38/54/31
f 34/50/32 7/12/32 38/54/32
f 38/55/33 39/57/33 12/22/33
f 38/55/34 33/49/34 39/57/34
f 33/49/35 11/17/35 39/57/35
f 24/39/36 37/53/36 11/17/36
f 24/39/37 31/47/37 37/53/37
f 31/47/38 10/16/38 37/53/38
f 32/48/39 36/52/39 10/16/39
f 32/48/40 29/45/40 36/52/40
f 29/45/41 9/15/41 36/52/41
f 30/46/42 35/51/42 9/15/42
f 30/46/43 27/42/43 35/51/43
f 27/42/44 8/14/44 35/51/44
f 28/43/45 34/50/45 8/13/45
f 28/43/46 25/40/46 34/50/46
f 25/40/47 7/12/47 34/50/47
f 26/41/48 33/49/48 7/12/48
f 26/41/49 23/38/49 33/49/49
f 23/38/50 11/17/50 33/49/50
f 31/47/51 32/48/51 10/16/51
f 31/47/52 22/37/52 32/48/52
f 22/37/53 5/10/53 32/48/53
f 29/45/54 30/46/54 9/15/54
f 29/45/55 21/36/55 30/46/55
f 21/36/56 4/9/56 30/46/56
f 27/42/57 28/44/57 8/14/57
f 27/42/58 19/33/58 28/44/58
f 19/33/59 3/7/59 28/44/59
f 25/40/60 26/41/60 7/12/60
f 25/40/61 15/27/61 26/41/61
f 15/27/62 2/6/62 26/41/62
f 23/38/63 24/39/63 11/17/63
f 23/38/64 16/28/64 24/39/64
f 16/28/65 6/11/65 24/39/65
f 17/29/66 22/37/66 6/11/66
f 17/29/67 20/34/67 22/37/67
f 20/34/68 5/10/68 22/37/68
f 20/35/69 21/36/69 5/10/69
f 20/35/70 18/31/70 21/36/70
f 18/31/71 4/9/71 21/36/71
f 18/32/72 19/33/72 4/9/72
f 18/32/73 13/23/73 19/33/73
f 13/23/74 3/7/74 19/33/74
f 16/28/75 17/30/75 6/11/75
f 16/28/76 14/25/76 17/30/76
f 14/25/77 1/5/77 17/30/77
f 13/24/78 15/27/78 3/8/78
f 13/24/79 14/26/79 15/27/79
f 14/26/80 2/6/80 15/27/80
