# Blender v3.4.1 OBJ File: 'Arrow.blend'
# www.blender.org
mtllib Arrow.mtl
o Cube
v -1.000000 -0.029866 -0.740976
v -1.000000 -0.740976 0.029866
v 1.000000 0.000000 -0.000000
v -1.000000 0.740976 -0.029866
v -1.000000 0.029866 0.740977
v -1.000000 -1.413066 0.056956
v -1.000000 0.056956 1.413066
v -1.000000 -0.056956 -1.413066
v -1.000000 1.413066 -0.056956
v -21.186550 0.740976 -0.029865
v -21.186550 0.029866 0.740977
v -21.186550 -0.740976 0.029867
v -21.186550 -0.029866 -0.740975
v -23.292984 0.740976 -0.029865
v -23.292984 -0.029866 -0.740975
v -23.292984 0.029866 0.740977
v -23.292984 -0.740976 0.029867
v -23.989624 1.103752 -1.974791
v -23.989624 1.874594 -1.253732
v -24.722855 1.874594 -1.253732
v -24.722855 1.103752 -1.974791
v -24.717457 1.426898 1.951775
v -23.947987 1.426898 1.951775
v -23.947987 2.008069 1.217019
v -24.717457 2.008069 1.217019
v -24.735855 -1.887460 -1.198973
v -23.976624 -1.887460 -1.198973
v -23.976624 -1.547507 -1.969816
v -24.735855 -1.547507 -1.969816
v -24.728012 -1.264001 1.969818
v -24.031500 -1.264001 1.969818
v -24.728012 -1.714345 1.258708
v -24.031500 -1.714345 1.258708
v -23.678604 -0.014966 0.000604
v -23.164820 -0.740976 0.029867
v -23.164820 0.029866 0.740977
v -23.678604 0.000603 0.014967
v -23.678604 -0.000603 -0.014965
v -23.164820 -0.029866 -0.740975
v -23.164820 0.740976 -0.029865
v -23.678604 0.014966 -0.000602
vt 0.215418 0.660211
vt 0.216277 0.990965
vt -0.001088 0.495574
vt 0.503090 0.493848
vt 0.359469 0.659718
vt 0.358609 0.328964
vt 0.213699 -0.001297
vt 0.214558 0.329457
vt 0.500597 0.990619
vt 0.999729 0.989157
vt 0.999729 0.989157
vt 0.500597 0.990620
vt 0.249470 0.581436
vt 0.249020 0.407997
vt 0.324557 0.407739
vt 0.325007 0.581178
vt 0.497621 0.009764
vt 0.753685 0.489540
vt 0.743664 0.509381
vt 0.743604 0.489570
vt 0.996751 0.008302
vt 0.996751 0.008302
vt 0.497621 0.009764
vt 0.500597 0.990619
vt 0.500597 0.990619
vt 0.999729 0.989157
vt 0.999729 0.989157
vt 0.996751 0.008302
vt 0.497621 0.009764
vt 0.996751 0.008302
vt 0.497621 0.009764
vt 0.500597 0.990619
vt 0.999729 0.989157
vt 0.999729 0.989157
vt 0.497621 0.009764
vt 0.996751 0.008302
vt 0.999729 0.989157
vt 0.500597 0.990619
vt 0.500597 0.990619
vt 0.996751 0.008302
vt 0.996751 0.008302
vt 0.999729 0.989157
vt 0.500597 0.990619
vt 0.497621 0.009764
vt 0.996751 0.008302
vt 0.497621 0.009764
vt 0.497621 0.009764
vt 0.753745 0.509352
vn 0.4472 0.6065 -0.6574
vn 0.4472 0.6574 0.6065
vn 0.4472 -0.6065 0.6574
vn 0.4472 -0.6574 -0.6065
vn 0.0000 -0.6781 0.7350
vn 0.0000 -0.6780 0.7350
vn -1.0000 0.0000 0.0000
vn 0.0000 0.7350 0.6780
vn -1.0000 0.0001 0.0000
vn 0.0000 -0.7350 -0.6780
vn -0.0000 -0.7350 -0.6781
vn -0.0000 0.6781 -0.7350
vn 0.0000 0.7350 0.6781
vn 0.5597 -0.7582 -0.3344
vn 0.0000 0.7336 0.6795
vn -0.7734 0.5356 -0.3392
vn -0.0000 0.7014 -0.7128
vn 0.0000 0.6831 -0.7303
vn -0.7607 -0.4435 0.4741
vn 0.0000 -0.7364 -0.6766
vn 0.5114 0.5827 -0.6316
vn 0.0000 0.7843 0.6204
vn -0.7802 -0.4598 -0.4241
vn 0.5559 0.6519 0.5157
vn 0.0000 -0.6549 0.7557
vn 0.0000 -0.9150 -0.4035
vn 0.0000 -0.7312 0.6822
vn 0.0000 0.6293 -0.7772
vn -0.7578 0.4796 0.4424
vn 0.0000 -0.8448 0.5350
vn 0.0000 0.6887 0.7251
vn 0.4816 -0.5943 0.6442
vn 0.0000 -0.7839 -0.6209
vn -0.7071 -0.4795 0.5197
vn -0.7072 -0.5196 -0.4795
vn -0.7071 0.5197 0.4795
vn -0.7071 0.4795 -0.5197
vn 0.0000 0.6780 -0.7350
vn -1.0000 -0.0001 0.0000
vn 0.5149 -0.6301 -0.5813
vn -0.7367 0.4585 -0.4971
vn -0.7593 -0.4413 0.4783
vn 0.5131 0.5864 -0.6269
vn -0.7918 -0.4790 -0.3789
vn 0.5411 0.6181 0.5702
vn -0.7940 0.5562 0.2453
vn 0.5241 -0.7195 0.4557
vn -0.7071 -0.5197 -0.4795
usemtl Material
s off
f 8/1/1 9/2/1 3/3/1
f 3/4/2 9/5/2 7/6/2
f 7/7/3 6/8/3 3/3/3
f 6/8/4 8/1/4 3/3/4
f 15/9/5 40/10/5 14/11/5
f 15/9/6 39/12/6 40/10/6
f 1/13/7 6/8/7 2/14/7
f 5/15/7 7/6/7 9/5/7
f 8/1/7 1/13/7 4/16/7
f 17/17/8 39/12/8 15/9/8
f 37/18/9 38/19/9 34/20/9
f 1/13/7 8/1/7 6/8/7
f 14/11/10 36/21/10 16/22/10
f 2/23/11 13/24/11 1/25/11
f 1/25/12 10/26/12 4/27/12
f 5/28/5 12/29/5 2/23/5
f 4/27/13 11/30/13 5/28/13
f 13/24/14 27/31/14 28/32/14
f 14/11/15 19/33/15 20/34/15
f 16/22/16 32/35/16 30/36/16
f 14/11/17 24/37/17 10/26/17
f 18/38/18 20/34/18 19/33/18
f 15/9/19 20/34/19 21/39/19
f 15/9/20 18/38/20 13/24/20
f 13/24/21 19/33/21 10/26/21
f 24/37/22 22/40/22 23/41/22
f 16/22/23 25/42/23 14/11/23
f 11/30/24 24/37/24 23/41/24
f 16/22/25 23/41/25 22/40/25
f 27/31/26 29/43/26 28/32/26
f 17/17/27 27/31/27 12/29/27
f 15/9/28 28/32/28 29/43/28
f 15/9/29 26/44/29 17/17/29
f 31/45/30 32/35/30 33/46/30
f 16/22/31 31/45/31 11/30/31
f 11/30/32 33/46/32 12/29/32
f 17/17/33 33/46/33 32/35/33
f 35/47/34 37/18/34 34/20/34
f 39/12/35 34/20/35 38/19/35
f 37/18/36 40/10/36 41/48/36
f 40/10/37 38/19/37 41/48/37
f 16/22/38 35/47/38 17/17/38
f 5/15/7 2/14/7 7/6/7
f 2/14/7 6/8/7 7/6/7
f 9/5/7 8/1/7 4/16/7
f 9/5/7 4/16/7 5/15/7
f 17/17/13 35/47/13 39/12/13
f 37/18/39 41/48/39 38/19/39
f 14/11/11 40/10/11 36/21/11
f 2/23/11 12/29/11 13/24/11
f 1/25/12 13/24/12 10/26/12
f 5/28/5 11/30/5 12/29/5
f 4/27/13 10/26/13 11/30/13
f 13/24/40 12/29/40 27/31/40
f 14/11/15 10/26/15 19/33/15
f 16/22/41 17/17/41 32/35/41
f 14/11/17 25/42/17 24/37/17
f 18/38/18 21/39/18 20/34/18
f 15/9/42 14/11/42 20/34/42
f 15/9/20 21/39/20 18/38/20
f 13/24/43 18/38/43 19/33/43
f 24/37/22 25/42/22 22/40/22
f 16/22/44 22/40/44 25/42/44
f 11/30/45 10/26/45 24/37/45
f 16/22/25 11/30/25 23/41/25
f 27/31/26 26/44/26 29/43/26
f 17/17/27 26/44/27 27/31/27
f 15/9/28 13/24/28 28/32/28
f 15/9/46 29/43/46 26/44/46
f 31/45/30 30/36/30 32/35/30
f 16/22/31 30/36/31 31/45/31
f 11/30/47 31/45/47 33/46/47
f 17/17/33 12/29/33 33/46/33
f 35/47/34 36/21/34 37/18/34
f 39/12/48 35/47/48 34/20/48
f 37/18/36 36/21/36 40/10/36
f 40/10/37 39/12/37 38/19/37
f 16/22/12 36/21/12 35/47/12
