# Blender v3.4.1 OBJ File: 'Tracer.blend'
# www.blender.org
mtllib Tracer.mtl
o Cube_Cube.001
v -15.695619 0.000000 -1.258696
v -15.716598 0.887200 -0.371744
v -15.716598 -0.887200 -0.371744
v -15.737576 0.000000 0.515208
v 1.002719 0.000000 -0.103119
v 0.163861 0.000000 -0.883572
v 0.999720 0.126800 0.023646
v 0.142882 0.887200 0.003380
v 0.999720 -0.126800 0.023646
v 0.142882 -0.887200 0.003380
v 0.121903 0.000000 0.890332
v 0.996722 0.000000 0.150411
vt 0.482135 0.357135
vt 0.517865 0.357135
vt 0.517865 0.392865
vt 0.482135 0.392865
vt 0.625000 0.607135
vt 0.875000 0.607135
vt 0.875000 0.750000
vt 0.625000 0.750000
vt 0.375000 0.750000
vt 0.625000 1.000000
vt 0.375000 1.000000
vt 0.375000 0.000000
vt 0.625000 0.000000
vt 0.625000 0.142865
vt 0.375000 0.142865
vt 0.375000 0.607135
vt 0.375000 0.500000
vt 0.375000 0.250000
vt 0.625000 0.250000
vt 0.625000 0.500000
vt 0.125000 0.607135
vt 0.125000 0.750000
vn 0.9997 0.0000 0.0236
vn -0.0167 0.7071 0.7069
vn -0.9997 0.0000 -0.0236
vn 0.0167 0.7071 -0.7069
vn -0.0167 -0.7071 0.7069
vn 0.5454 0.5990 -0.5863
vn 0.5454 -0.5990 -0.5863
vn 0.5171 0.5990 0.6114
vn 0.5171 -0.5990 0.6114
vn 0.0167 -0.7071 -0.7069
usemtl Material
s off
f 5/1/1 7/2/1 12/3/1 9/4/1
f 11/5/2 8/6/2 2/7/2 4/8/2
f 3/9/3 4/8/3 2/10/3 1/11/3
f 1/12/4 2/13/4 8/14/4 6/15/4
f 10/16/5 11/5/5 4/8/5 3/9/5
f 7/2/6 5/1/6 6/15/6 8/14/6
f 10/17/7 6/18/7 5/1/7 9/4/7
f 8/19/8 11/20/8 12/3/8 7/2/8
f 11/5/9 10/16/9 9/4/9 12/3/9
f 6/21/10 10/16/10 3/9/10 1/22/10
